<svg xmlns="http://www.w3.org/2000/svg" width="969" height="347" viewBox="0 0 1077.12 386.82"><path d="M2.16,298.08L232.56,298.08L232.56,110.88L2.16,110.88Z" style="fill:#f0f0f0;stroke:rgb(0,0,0);stroke-width:2.16;"/><path d="M282.96,298.08L513.36,298.08L513.36,110.88L282.96,110.88Z" style="fill:#f0f0f0;stroke:rgb(0,0,0);stroke-width:2.16;"/><path d="M563.76,298.08L794.16,298.08L794.16,110.88L563.76,110.88Z" style="fill:#f0f0f0;stroke:rgb(0,0,0);stroke-width:2.16;"/><path d="M844.56,298.08L1074.96,298.08L1074.96,110.88L844.56,110.88Z" style="fill:#f0f0f0;stroke:rgb(0,0,0);stroke-width:2.16;"/><text x="117.36" y="142.56" fill="rgb(0,0,0)" font-weight="bold" text-anchor="middle" dominant-baseline="central">Native</text><text x="117.36" y="168.48" fill="rgb(0,0,0)" text-anchor="middle" dominant-baseline="central">(Data Structure)</text><text x="398.16" y="142.56" fill="rgb(0,0,0)" font-weight="bold" text-anchor="middle" dominant-baseline="central">Representation</text><text x="398.16" y="168.48" fill="rgb(0,0,0)" text-anchor="middle" dominant-baseline="central">(Node Graph)</text><text x="678.96" y="142.56" fill="rgb(0,0,0)" font-weight="bold" text-anchor="middle" dominant-baseline="central">Serialization</text><text x="678.96" y="168.48" fill="rgb(0,0,0)" text-anchor="middle" dominant-baseline="central">(Event Tree)</text><text x="959.76" y="142.56" fill="rgb(0,0,0)" font-weight="bold" text-anchor="middle" dominant-baseline="central">Presentation</text><text x="959.76" y="168.48" fill="rgb(0,0,0)" text-anchor="middle" dominant-baseline="central">(Character Stream)</text><text x="117.36" y="211.68" fill="rgb(0,0,0)" font-size="80%" text-anchor="middle" dominant-baseline="central">opaque</text><text x="117.36" y="231.84" fill="rgb(0,0,0)" font-size="80%" text-anchor="middle" dominant-baseline="central">program</text><text x="117.36" y="252" fill="rgb(0,0,0)" font-size="80%" text-anchor="middle" dominant-baseline="central">data</text><text x="398.16" y="211.68" fill="rgb(0,0,0)" font-size="80%" text-anchor="middle" dominant-baseline="central">tags,</text><text x="398.16" y="231.84" fill="rgb(0,0,0)" font-size="80%" text-anchor="middle" dominant-baseline="central">mapping/sequence/scalar,</text><text x="398.16" y="252" fill="rgb(0,0,0)" font-size="80%" text-anchor="middle" dominant-baseline="central">canonical string values</text><text x="678.96" y="211.68" fill="rgb(0,0,0)" font-size="80%" text-anchor="middle" dominant-baseline="central">anchors,</text><text x="678.96" y="231.84" fill="rgb(0,0,0)" font-size="80%" text-anchor="middle" dominant-baseline="central">aliases,</text><text x="678.96" y="252" fill="rgb(0,0,0)" font-size="80%" text-anchor="middle" dominant-baseline="central">key order</text><text x="959.76" y="211.68" fill="rgb(0,0,0)" font-size="80%" text-anchor="middle" dominant-baseline="central">styles, comments,</text><text x="959.76" y="231.84" fill="rgb(0,0,0)" font-size="80%" text-anchor="middle" dominant-baseline="central">directives, spacing,</text><text x="959.76" y="252" fill="rgb(0,0,0)" font-size="80%" text-anchor="middle" dominant-baseline="central">formatted string values, ...</text><polygon points="1005.84,46.08 994.32,50.4 994.32,41.76" style="fill:rgb(0,0,0);"/><path d="M71.28,46.08L1000.08,46.08" style="fill:none;stroke:rgb(0,0,0);stroke-width:2.16;"/><text x="538.56" y="34.38" fill="rgb(0,0,0)" font-weight="bold" text-anchor="middle" dominant-baseline="central">Dump</text><polygon points="71.28,362.88 82.8,358.56 82.8,367.2" style="fill:rgb(0,0,0);"/><path d="M1005.84,362.88L77.04,362.88" style="fill:none;stroke:rgb(0,0,0);stroke-width:2.16;"/><text x="538.56" y="374.58" fill="rgb(0,0,0)" font-weight="bold" text-anchor="middle" dominant-baseline="central">Load</text><text x="117.36" y="17.28" fill="rgb(0,0,0)" font-weight="bold" text-anchor="middle" dominant-baseline="central">Application</text><text x="959.76" y="17.28" fill="rgb(0,0,0)" font-weight="bold" text-anchor="middle" dominant-baseline="central">YAML</text><polygon points="304.56,110.88 300.24,99.36 308.88,99.36" style="fill:rgb(0,0,0);"/><path d="M210.96,110.88L210.96,96.48Q210.96,82.08 257.76,82.08Q304.56,82.08 304.56,93.6L304.56,105.12" style="fill:none;stroke:rgb(0,0,0);stroke-width:2.16;"/><text x="257.76" y="74.88" fill="rgb(0,0,0)" font-style="italic" font-size="80%" text-anchor="middle" dominant-baseline="central">Represent</text><polygon points="585.36,110.88 581.04,99.36 589.68,99.36" style="fill:rgb(0,0,0);"/><path d="M491.76,110.88L491.76,96.48Q491.76,82.08 538.56,82.08Q585.36,82.08 585.36,93.6L585.36,105.12" style="fill:none;stroke:rgb(0,0,0);stroke-width:2.16;"/><text x="538.56" y="74.88" fill="rgb(0,0,0)" font-style="italic" font-size="80%" text-anchor="middle" dominant-baseline="central">Serialize</text><polygon points="866.16,110.88 861.84,99.36 870.48,99.36" style="fill:rgb(0,0,0);"/><path d="M772.56,110.88L772.56,96.48Q772.56,82.08 819.36,82.08Q866.16,82.08 866.16,93.6L866.16,105.12" style="fill:none;stroke:rgb(0,0,0);stroke-width:2.16;"/><text x="819.36" y="74.88" fill="rgb(0,0,0)" font-style="italic" font-size="80%" text-anchor="middle" dominant-baseline="central">Present</text><polygon points="772.56,298.08 776.88,309.6 768.24,309.6" style="fill:rgb(0,0,0);"/><path d="M866.16,298.08L866.16,312.48Q866.16,326.88 819.36,326.88Q772.56,326.88 772.56,315.36L772.56,303.84" style="fill:none;stroke:rgb(0,0,0);stroke-width:2.16;"/><text x="819.36" y="334.08" fill="rgb(0,0,0)" font-style="italic" font-size="80%" text-anchor="middle" dominant-baseline="central">Parse</text><polygon points="491.76,298.08 496.08,309.6 487.44,309.6" style="fill:rgb(0,0,0);"/><path d="M585.36,298.08L585.36,312.48Q585.36,326.88 538.56,326.88Q491.76,326.88 491.76,315.36L491.76,303.84" style="fill:none;stroke:rgb(0,0,0);stroke-width:2.16;"/><text x="538.56" y="334.08" fill="rgb(0,0,0)" font-style="italic" font-size="80%" text-anchor="middle" dominant-baseline="central">Compose</text><polygon points="210.96,298.08 215.28,309.6 206.64,309.6" style="fill:rgb(0,0,0);"/><path d="M304.56,298.08L304.56,312.48Q304.56,326.88 257.76,326.88Q210.96,326.88 210.96,315.36L210.96,303.84" style="fill:none;stroke:rgb(0,0,0);stroke-width:2.16;"/><text x="257.76" y="334.08" fill="rgb(0,0,0)" font-style="italic" font-size="80%" text-anchor="middle" dominant-baseline="central">Construct</text></svg>
